<svg width="20" height="28" viewBox="0 0 20 28" fill="none" xmlns="http://www.w3.org/2000/svg">
<path d="M1.61719 1.63477C1.91016 1.5293 2.15039 1.44141 2.33789 1.37109C2.53711 1.30078 2.73047 1.23633 2.91797 1.17773C3.10547 1.11914 3.29883 1.06641 3.49805 1.01953C3.70898 0.972656 3.9668 0.919922 4.27148 0.861328C4.98633 0.744141 5.73633 0.667969 6.52148 0.632812C7.31836 0.585937 8.10938 0.591797 8.89453 0.650391C9.69141 0.708984 10.4648 0.832031 11.2148 1.01953C11.9766 1.19531 12.6914 1.44727 13.3594 1.77539C14.168 2.18555 14.8301 2.68359 15.3457 3.26953C15.873 3.85547 16.248 4.5 16.4707 5.20312C16.7051 5.90625 16.7871 6.65039 16.7168 7.43555C16.6465 8.2207 16.418 9.00586 16.0312 9.79102C15.7734 10.3066 15.4512 10.8047 15.0645 11.2852L19.916 11.3027V13.9043L12.498 13.8867L12.3398 14.0273L10.5996 15.4688L19.6699 15.5039V18.1055L7.57617 18.0703C7.27148 18.375 6.98438 18.6973 6.71484 19.0371C6.45703 19.3652 6.25195 19.7051 6.09961 20.0566C5.95898 20.4082 5.89453 20.7715 5.90625 21.1465C5.92969 21.5215 6.07031 21.8906 6.32812 22.2539C6.45703 22.418 6.58008 22.5586 6.69727 22.6758C6.81445 22.793 6.96094 22.916 7.13672 23.0449C7.37109 23.209 7.59961 23.3438 7.82227 23.4492C8.04492 23.543 8.29688 23.6367 8.57812 23.7305C8.84766 23.8242 9.14648 23.9004 9.47461 23.959C9.80273 24.0059 10.1016 24.041 10.3711 24.0645C10.793 24.0879 11.2266 24.0879 11.6719 24.0645C12.1172 24.0293 12.5449 23.9883 12.9551 23.9414C13.834 23.8477 14.707 23.707 15.5742 23.5195C16.4414 23.332 17.291 23.0977 18.123 22.8164L19.125 26.1738C18.0586 26.5371 16.9688 26.8242 15.8555 27.0352C14.7539 27.2461 13.6348 27.3984 12.498 27.4922C11.6426 27.5508 10.7871 27.5566 9.93164 27.5098C9.08789 27.4746 8.25 27.3223 7.41797 27.0527C6.85547 26.8652 6.32227 26.6309 5.81836 26.3496C5.32617 26.0684 4.85742 25.7285 4.41211 25.3301C4.11914 25.084 3.86133 24.8145 3.63867 24.5215C3.41602 24.2168 3.2168 23.8945 3.04102 23.5547C2.87695 23.25 2.74805 22.9512 2.6543 22.6582C2.57227 22.3535 2.50781 22.0312 2.46094 21.6914C2.37891 21.0117 2.4082 20.373 2.54883 19.7754C2.68945 19.1777 2.90625 18.6035 3.19922 18.0527L0.474609 18.0352V15.4336L5.23828 15.4512C5.51953 15.1699 5.8125 14.9004 6.11719 14.6426C6.42188 14.373 6.72656 14.1152 7.03125 13.8691L0.720703 13.834V11.2324L10.1953 11.2676L10.6875 10.8105C10.9805 10.5293 11.2793 10.2422 11.584 9.94922C11.8887 9.64453 12.1641 9.32227 12.4102 8.98242C12.6562 8.64258 12.8555 8.28516 13.0078 7.91016C13.1719 7.52344 13.248 7.11328 13.2363 6.67969C13.2012 6.5625 13.166 6.44531 13.1309 6.32812C13.0957 6.21094 13.0547 6.09375 13.0078 5.97656C12.9375 5.88281 12.8672 5.78906 12.7969 5.69531C12.7383 5.60156 12.6621 5.51953 12.5684 5.44922C12.0996 5.05078 11.5371 4.75195 10.8809 4.55273C10.2363 4.3418 9.55664 4.20703 8.8418 4.14844C8.13867 4.08984 7.43555 4.08398 6.73242 4.13086C6.0293 4.17773 5.39062 4.24219 4.81641 4.32422C4.59375 4.35938 4.39453 4.40039 4.21875 4.44727C4.04297 4.49414 3.87305 4.54688 3.70898 4.60547C3.55664 4.65234 3.39258 4.71094 3.2168 4.78125C3.04102 4.83984 2.8418 4.91016 2.61914 4.99219L1.61719 1.63477Z" fill="black"/>
</svg>
